HIERARCHY
ROOT pelvis
{
  OFFSET 0 100 0
  CHANNELS 6 Xposition Yposition Zposition Zrotation Xrotation Yrotation
  JOINT pelvis_right_femur
  {
    OFFSET -10.78128 -3.44521 -0.5502486
    CHANNELS 3 Zrotation Xrotation Yrotation
    JOINT right_femur_tibia
    {
      OFFSET -0.8047443 -44.0398 -0.1307829
      CHANNELS 3 Zrotation Xrotation Yrotation
      JOINT right_tibia_foot
      {
        OFFSET 3.006224 -47.83518 -5
        CHANNELS 3 Zrotation Xrotation Yrotation
        End Site
        {
          OFFSET 0 -5 15
        }
      }
    }
  }
  JOINT pelvis_left_femur
  {
    OFFSET 10.78128 -3.44521 -0.5502486
    CHANNELS 3 Zrotation Xrotation Yrotation
    JOINT left_femur_tibia
    {
      OFFSET 0.8047443 -44.0398 -0.1307829
      CHANNELS 3 Zrotation Xrotation Yrotation
      JOINT left_tibia_foot
      {
        OFFSET -4.370144 -48.10324 -4.275266
        CHANNELS 3 Zrotation Xrotation Yrotation
        End Site
        {
          OFFSET 0 -5 15
        }
      }
    }
  }
  JOINT pelvis_spine1
  {
    OFFSET 0 6.468898 -3.129235
    CHANNELS 3 Zrotation Xrotation Yrotation
    JOINT spine1
    {
      OFFSET 0 23.15396 4.99043
      CHANNELS 3 Zrotation Xrotation Yrotation
      JOINT spine2
      {
        OFFSET 0 20.79997 -5.064912
        CHANNELS 3 Zrotation Xrotation Yrotation
        JOINT neck
        {
          OFFSET 0 14.38658 9.616178
          CHANNELS 3 Zrotation Xrotation Yrotation
          End Site
          {
            OFFSET 0 20 0
          }
        }
      }
      JOINT right_manubrium
      {
        OFFSET -5.722621 16.35077 3.967754
        CHANNELS 3 Zrotation Xrotation Yrotation
        JOINT right_clavicle
        {
          OFFSET -13.16364 1.694482 -4.693211
          CHANNELS 3 Zrotation Xrotation Yrotation
          JOINT right_humerus
          {
            OFFSET -28.5034 -0.3100689 -2.792744
            CHANNELS 3 Zrotation Xrotation Yrotation
            JOINT right_radius
            {
              OFFSET -25.15693 0.02248979 -1.271978
              CHANNELS 3 Zrotation Xrotation Yrotation
              End Site
              {
                OFFSET -15 0 0
              }
            }
          }
        }
      }
      JOINT left_manubrium
      {
        OFFSET 5.722621 16.35077 3.967754
        CHANNELS 3 Zrotation Xrotation Yrotation
        JOINT left_clavicle
        {
          OFFSET 13.16364 1.694482 -4.693211
          CHANNELS 3 Zrotation Xrotation Yrotation
          JOINT left_humerus
          {
            OFFSET 29.39168 -1.063119 -2.237045
            CHANNELS 3 Zrotation Xrotation Yrotation
            JOINT left_radius
            {
              OFFSET 24.59957 -0.9528479 0.9047498
              CHANNELS 3 Zrotation Xrotation Yrotation
              End Site
              {
                OFFSET 15 -0 -0
              }
            }
          }
        }
      }
    }
  }
}
MOTION
Frames: 19
Frame Time: 0.0416666666667
0 103.5113 0 2.441332 0.3103907 0.09998615 3.590394 -15.18084 11.28799 -0 38.08821 -0 -4.547546 -17.85188 -3.571549 -8.971011 9.098368 -21.72367 -0 5.332805 -0 21.83755 -10.27874 30.06711 -1.47956 -2.238985 6.564548 1.777946 11.08248 -7.026321 2.082874 21.25504 4.722273 2.275091 -24.6812 8.55557 4.632349 -20.8243 10.82178 86.80966 36.44941 -18.18178 -0 0 15.47626 -7.983404 8.931631 4.511242 6.30627 -21.01854 -1.791989 -91.5819 22.15659 21.53819 0 0 -17.53815 15.01499 13.86764 -1.734689
0.3677105 103.3696 1.576965 1.797314 0.9081548 0.1996352 4.697677 -17.4349 11.98863 -0 38.96757 -0 -4.889488 -16.85056 -3.295586 -8.674797 8.754816 -21.75964 -0 5.839452 -0 22.28338 -10.38226 30.53631 -1.451722 -2.18351 6.569488 1.79418 11.13529 -7.032674 2.075827 21.24798 4.671032 2.243977 -24.64799 8.480729 4.579632 -20.82893 10.88029 86.80084 36.33146 -18.07827 -0 0 15.43304 -8.141848 8.957665 4.645413 6.226091 -21.00368 -1.8134 -91.48033 21.95849 21.47379 0 0 -17.46904 14.97873 13.7685 -1.792086
0.621303 102.8733 3.859731 1.249016 -0.04579561 0.3549622 4.497806 -20.75338 6.255624 -0 31.4529 -0 -7.224402 -12.28211 -1.543043 -7.777683 11.25146 -20.06016 -0 7.641952 -0 16.52313 -15.10783 27.1914 -1.526135 -2.352786 6.626965 1.629202 10.78366 -6.869615 2.066151 21.27666 4.928051 2.474124 -24.56035 8.654045 4.853237 -20.74875 10.57699 86.4064 36.97894 -18.11755 -0 0 15.58924 -7.650842 8.940673 4.419192 6.609263 -21.08604 -1.800548 -91.81279 23.23516 21.67147 0 0 -18.50464 14.57443 14.08182 -0.6860944
0.8262275 102.2828 6.698875 0.5200218 0.1478551 0.505259 5.0088 -24.52978 3.996869 -0 27.20538 -0 -8.430832 -8.832239 -0.5868172 -7.084783 12.32456 -18.79817 -0 9.121233 -0 13.45314 -17.59591 25.04267 -1.532353 -2.392743 6.654066 1.541644 10.60962 -6.781675 2.046874 21.28354 5.061274 2.608169 -24.47126 8.683798 4.973663 -20.66831 10.45335 86.16708 37.24127 -18.07433 -0 0 15.60496 -7.534019 8.974986 4.416714 6.772824 -21.14002 -1.812341 -91.92435 23.87054 21.70961 0 0 -19.11883 14.20452 14.19424 0.03681938
0.9957798 101.5852 10.14299 0.04458148 0.1206193 0.6907995 5.261849 -27.30923 1.856777 -0 23.1142 -0 -9.547528 -5.456656 0.3203492 -6.581192 13.23771 -17.12304 -0 11.39621 -0 11.52958 -18.79563 22.81773 -1.540573 -2.399134 6.60832 1.492855 10.43227 -6.723444 2.007768 21.30496 5.244649 2.781972 -24.39828 8.699527 5.151039 -20.45517 10.37223 85.96224 37.39387 -18.15336 -0 0 15.47553 -7.455512 9.027198 4.433957 6.882375 -21.19381 -1.852848 -92.09422 24.61139 21.71992 0 0 -19.66337 13.5583 14.34865 1.044575
1.142233 100.9026 14.20571 -0.417661 0.1903427 0.9107565 5.658125 -29.46954 0.4707472 -0 19.92513 -0 -10.39936 -2.36871 1.04828 -6.117012 13.87813 -15.46968 -0 14.4945 -0 9.945827 -19.05663 20.6146 -1.530649 -2.348503 6.554353 1.469389 10.30327 -6.678925 1.960169 21.32739 5.383557 2.926187 -24.30692 8.648592 5.287576 -20.23514 10.35361 85.76378 37.44871 -18.15442 -0 0 15.29468 -7.531259 9.107212 4.565141 6.901954 -21.22377 -1.908432 -92.18463 25.16328 21.68192 0 0 -20.07091 12.8666 14.42045 1.996807
1.267476 100.3441 18.91969 -0.8742114 0.1335818 1.14177 6.169902 -30.68364 -0.4620613 -0 17.5221 -0 -11.10416 0.5106208 1.615846 -5.623589 14.29508 -13.71755 -0 18.89489 -0 8.262814 -18.36042 18.20638 -1.506763 -2.261591 6.50362 1.44604 10.18183 -6.630228 1.904244 21.35117 5.509806 3.068526 -24.18691 8.554726 5.404684 -20.00753 10.35936 85.53894 37.48937 -18.08666 -0 0 15.08941 -7.715498 9.219392 4.775976 6.884891 -21.24565 -1.970037 -92.22961 25.66544 21.61825 0 0 -20.46893 12.10018 14.44646 3.001949
1.375339 100.06 24.2716 -1.37637 -0.02628214 1.334709 6.905831 -30.79074 -0.7414624 -0 16.15623 -0 -11.5972 2.909256 1.901665 -5.042089 14.26783 -11.96921 -0 24.79708 -0 6.303486 -16.65305 15.65502 -1.464175 -2.141116 6.483081 1.407626 10.07147 -6.565861 1.844149 21.36884 5.609426 3.200592 -24.02719 8.41394 5.480417 -19.81053 10.38176 85.26473 37.54925 -17.88985 -0 0 14.90266 -8.034339 9.37336 5.079609 6.846436 -21.2624 -2.022115 -92.19886 26.06215 21.52697 0 0 -20.87283 11.34099 14.4031 3.970658
1.470801 100.1879 30.18301 -1.89382 -0.3054183 1.414568 7.79238 -29.55567 -0.4048468 -0 15.70741 -0 -11.84137 4.499135 1.823033 -4.37052 13.48374 -10.28431 -0 32.25696 -0 4.124265 -13.95733 13.13112 -1.401915 -1.995463 6.509736 1.336971 9.960029 -6.474016 1.78155 21.37504 5.690952 3.330879 -23.82016 8.233735 5.510458 -19.66137 10.40657 84.91335 37.6628 -17.53099 -0 0 14.77177 -8.498932 9.579907 5.473403 6.813371 -21.28133 -2.047793 -92.09499 26.36948 21.41869 0 0 -21.31902 10.61168 14.2961 4.900495
1.560506 100.8096 36.48717 -2.328533 -0.6854418 1.301936 8.586672 -26.85991 0.3374232 -0 15.74297 -0 -11.8523 4.946097 1.393113 -3.663271 11.54846 -8.790183 -0 40.91561 -0 1.952965 -10.55723 10.9303 -1.321263 -1.832604 6.602208 1.220429 9.840525 -6.343584 1.718466 21.36162 5.757382 3.46175 -23.56166 8.019678 5.484069 -19.58613 10.4258 84.44637 37.84622 -16.95304 -0 0 14.74895 -9.135759 9.848972 5.965663 6.80625 -21.30337 -2.024329 -91.91651 26.56663 21.30686 0 0 -21.80733 9.951895 14.12381 5.752736
1.646835 101.8933 42.94417 -2.512328 -1.187589 0.9461881 8.928133 -22.75195 1.080116 -0 15.53388 -0 -11.7503 4.155931 0.780235 -3.023551 8.145194 -7.613251 -0 49.92264 -0 0.08298891 -7.040912 9.36245 -1.228022 -1.663587 6.774679 1.047225 9.699029 -6.163823 1.65575 21.31946 5.817939 3.597789 -23.25228 7.781782 5.393164 -19.60978 10.43194 83.81155 38.10183 -16.09017 -0 0 14.89817 -9.972935 10.18764 6.567001 6.846107 -21.32399 -1.924843 -91.6751 26.64463 21.21557 0 0 -22.32394 9.380923 13.89212 6.50778
1.719873 103.2726 49.29199 -2.291111 -1.874938 0.3644477 8.572787 -17.49343 1.462782 -0 14.43614 -0 -11.70839 2.414295 0.2473843 -2.534273 3.225408 -6.83273 -0 57.89737 -0 -1.256972 -4.145901 8.652079 -1.133424 -1.501829 7.036064 0.8133124 9.517884 -5.926 1.593488 21.23865 5.882677 3.740625 -22.89907 7.5327 5.229953 -19.75899 10.4203 82.9446 38.40901 -14.86512 -0 0 15.29439 -11.03816 10.59507 7.293376 6.94885 -21.32915 -1.721224 -91.39096 26.5924 21.17805 0 0 -22.83081 8.906476 13.60792 7.148387
1.756298 104.6776 55.31617 -1.657258 -2.800146 -0.3435281 7.606187 -11.50331 1.384146 -0 12.33134 -0 -11.84182 0.2557196 -0.01124176 -2.147885 -2.855186 -6.39573 -0 63.07187 -0 -1.962667 -2.416105 8.87906 -1.053489 -1.361565 7.385438 0.5241231 9.276404 -5.625987 1.530857 21.1116 5.962412 3.888904 -22.51599 7.287463 4.990478 -20.0547 10.38899 81.78325 38.72108 -13.20998 -0 0 16.00863 -12.34831 11.05873 8.160539 7.121 -21.29525 -1.391787 -91.09501 26.41071 21.23436 0 0 -23.27194 8.512398 13.28093 7.676485
1.735952 105.8062 60.90458 -0.8354903 -3.895121 -1.036011 6.462368 -5.316348 1.003328 -0 9.773195 -0 -12.15124 -1.934705 0.003595217 -1.617935 -9.365384 -6.061202 -0 63.67109 -0 -2.010727 -1.911397 9.947952 -1.006291 -1.254085 7.809105 0.1965975 8.958352 -5.267375 1.466729 20.93721 6.064669 4.036483 -22.12252 7.06074 4.677645 -20.50388 10.34043 80.2941 38.9658 -11.09663 -0 0 17.08447 -13.89864 11.55218 9.176199 7.352524 -21.19185 -0.9318062 -90.82508 26.11453 21.42374 0 0 -23.57768 8.158648 12.92168 8.115883
1.670829 106.4066 66.07355 -0.2032853 -4.923611 -1.617105 5.701592 0.4125244 0.5581982 -0 7.651805 -0 -12.51383 -4.175913 0.1088569 -0.5936123 -15.37443 -5.442218 -0 58.66021 -0 -1.402443 -2.18707 11.55048 -1.007039 -1.183057 8.279845 -0.1425769 8.562142 -4.863507 1.400512 20.72521 6.19099 4.173145 -21.7398 6.864074 4.305496 -21.08934 10.28245 78.5072 39.05845 -8.576159 -0 0 18.50957 -15.65368 12.03898 10.32819 7.612364 -20.99002 -0.3633433 -90.62095 25.73526 21.77434 0 0 -23.67537 7.786137 12.54107 8.514257
1.619605 106.3556 70.96627 -0.06488006 -5.580362 -2.087642 5.659965 5.002248 0.2392582 -0 6.657889 -0 -12.68101 -6.685415 0.0817014 1.096449 -20.00837 -4.231291 -0 48.62771 -0 -0.2319358 -2.552879 13.1754 -1.063042 -1.14131 8.760396 -0.4627332 8.110635 -4.436833 1.332994 20.49804 6.335716 4.286865 -21.38549 6.703942 3.901966 -21.76447 10.22865 76.53916 38.92646 -5.803836 -0 0 20.19697 -17.54467 12.48202 11.575 7.84994 -20.67341 0.2612092 -90.51745 25.31468 22.2936 0 0 -23.50167 7.332536 12.1492 8.933436
1.665767 105.6977 75.81277 -0.4510254 -5.691002 -2.504157 6.20348 8.081102 0.1639185 -0 6.955473 -0 -12.39844 -9.491222 -0.1535094 3.158548 -22.76704 -2.54337 -0 35.97687 -0 1.171072 -2.485145 14.31047 -1.170903 -1.111465 9.210129 -0.7371249 7.65337 -4.015431 1.266613 20.28803 6.487755 4.367301 -21.06936 6.581788 3.507836 -22.4569 10.19707 74.58335 38.53824 -3.027927 -0 0 21.98864 -19.47601 12.85496 12.84483 8.00525 -20.24752 0.8658891 -90.53752 24.89483 22.96274 0 0 -23.0168 6.751988 11.75415 9.432451
1.875571 104.6018 80.85086 -1.112044 -5.359774 -2.91963 6.810461 9.940776 0.3019587 -0 8.250988 -0 -11.65399 -12.31885 -0.4457931 4.884777 -23.77145 -1.032271 -0 23.8818 -0 2.256413 -1.947359 14.80208 -1.317396 -1.070972 9.592209 -0.9490001 7.257398 -3.628394 1.204898 20.12986 6.634066 4.408568 -20.79175 6.495414 3.170092 -23.08199 10.20654 72.86291 37.91999 -0.536598 -0 0 23.68494 -21.3394 13.14978 14.04681 8.02499 -19.74173 1.367313 -90.68561 24.50811 23.73623 0 0 -22.21819 6.03025 11.36088 10.04907
2.27042 103.2761 86.24911 -1.687329 -4.926371 -3.376458 6.908778 11.45613 0.4334107 -0 10.16564 -0 -10.76265 -14.69662 -0.5400678 5.587331 -23.65335 -0.5343424 -0 14.78165 -0 2.498397 -1.345836 15.00051 -1.483349 -0.9992809 9.878215 -1.09302 6.989638 -3.302232 1.151373 20.05129 6.763088 4.410184 -20.54554 6.440541 2.931308 -23.56058 10.27158 71.57022 37.14966 1.412387 -0 0 25.08806 -23.03137 13.37705 15.09043 7.877831 -19.20314 1.69394 -90.94318 24.17268 24.54533 0 0 -21.1492 5.188034 10.97152 10.7885
